<mxfile host="Electron" agent="Mozilla/5.0 (X11; Linux x86_64) AppleWebKit/537.36 (KHTML, like Gecko) draw.io/24.7.17 Chrome/128.0.6613.36 Electron/32.0.1 Safari/537.36" version="24.7.17">
  <diagram name="Page-1" id="vi5nTmxb2EWCgt3bIM0p">
    <mxGraphModel dx="1434" dy="835" grid="1" gridSize="8" guides="1" tooltips="1" connect="1" arrows="1" fold="1" page="1" pageScale="1" pageWidth="850" pageHeight="1100" math="0" shadow="0">
      <root>
        <mxCell id="0" />
        <mxCell id="1" parent="0" />
        <mxCell id="_f1q4S9SzvILGj3-W1M5-141" value="" style="group" vertex="1" connectable="0" parent="1">
          <mxGeometry x="24" y="32" width="864" height="612" as="geometry" />
        </mxCell>
        <mxCell id="_f1q4S9SzvILGj3-W1M5-139" value="" style="rounded=0;whiteSpace=wrap;html=1;fillColor=none;fillStyle=hatch;strokeWidth=3;" vertex="1" parent="_f1q4S9SzvILGj3-W1M5-141">
          <mxGeometry y="38" width="864" height="532" as="geometry" />
        </mxCell>
        <mxCell id="_f1q4S9SzvILGj3-W1M5-1" value="&lt;font face=&quot;Courier New&quot; style=&quot;font-size: 14px;&quot;&gt;Control Unit&lt;/font&gt;" style="ellipse;whiteSpace=wrap;html=1;aspect=fixed;" vertex="1" parent="_f1q4S9SzvILGj3-W1M5-141">
          <mxGeometry x="8" y="230" width="120" height="120" as="geometry" />
        </mxCell>
        <mxCell id="_f1q4S9SzvILGj3-W1M5-2" value="&lt;font style=&quot;font-size: 14px;&quot; face=&quot;Courier New&quot;&gt;Register&lt;br&gt;Sign 1&lt;/font&gt;" style="rounded=0;whiteSpace=wrap;html=1;" vertex="1" parent="_f1q4S9SzvILGj3-W1M5-141">
          <mxGeometry x="128" y="120" width="110" height="70" as="geometry" />
        </mxCell>
        <mxCell id="_f1q4S9SzvILGj3-W1M5-5" value="&lt;font face=&quot;Courier New&quot; style=&quot;font-size: 14px;&quot;&gt;Register&lt;br&gt;Exponent 1&lt;/font&gt;" style="rounded=0;whiteSpace=wrap;html=1;" vertex="1" parent="_f1q4S9SzvILGj3-W1M5-141">
          <mxGeometry x="248" y="120" width="110" height="70" as="geometry" />
        </mxCell>
        <mxCell id="_f1q4S9SzvILGj3-W1M5-6" value="&lt;font face=&quot;Courier New&quot; style=&quot;font-size: 14px;&quot;&gt;Register&lt;br&gt;Mantissa 1&lt;/font&gt;" style="rounded=0;whiteSpace=wrap;html=1;" vertex="1" parent="_f1q4S9SzvILGj3-W1M5-141">
          <mxGeometry x="368" y="120" width="110" height="70" as="geometry" />
        </mxCell>
        <mxCell id="_f1q4S9SzvILGj3-W1M5-7" value="&lt;font face=&quot;Courier New&quot; style=&quot;font-size: 14px;&quot;&gt;Register&lt;br&gt;Sign 2&lt;/font&gt;" style="rounded=0;whiteSpace=wrap;html=1;" vertex="1" parent="_f1q4S9SzvILGj3-W1M5-141">
          <mxGeometry x="508" y="120" width="110" height="70" as="geometry" />
        </mxCell>
        <mxCell id="_f1q4S9SzvILGj3-W1M5-8" value="&lt;font style=&quot;font-size: 14px;&quot; face=&quot;Courier New&quot;&gt;Register&lt;br&gt;Exponent 2&lt;/font&gt;" style="rounded=0;whiteSpace=wrap;html=1;" vertex="1" parent="_f1q4S9SzvILGj3-W1M5-141">
          <mxGeometry x="628" y="120" width="110" height="70" as="geometry" />
        </mxCell>
        <mxCell id="_f1q4S9SzvILGj3-W1M5-9" value="&lt;font style=&quot;font-size: 14px;&quot; face=&quot;Courier New&quot;&gt;Register&lt;br&gt;Mantissa 2&lt;/font&gt;" style="rounded=0;whiteSpace=wrap;html=1;" vertex="1" parent="_f1q4S9SzvILGj3-W1M5-141">
          <mxGeometry x="748" y="120" width="110" height="70" as="geometry" />
        </mxCell>
        <mxCell id="_f1q4S9SzvILGj3-W1M5-45" value="" style="shape=stencil(tVRBbsMgEHwN18pmm7o9RjQ99ZoHUGdTo9iLhUnS/r7Y2FKJDUoT9YK0M2JmgBEMRFfJFhnPKgavjPOcZ25189nPxTiSbNAj6/ethzpr9AHPamfHvYoqNMr2LGxYtma9VsZAlJoIS6s0dQHzi3diUpENnBR5o9apNmjReHhM9BVM3+P0MAGMv/271/NtXvporzDLL8xWy14gHBK7YBAfsjx8Gn2k3WLCVvaPNyMmutEnjB0/T9/0JFErikoUkTOlFGAVSDzdHeLxhhAXRfi7QBEqwP0SL1dJlLXuMNFYh88qMaCRHoHYa4OJgu1VXfuPIuEaaeFynImLqg7bZrEG1H92A/AD);whiteSpace=wrap;html=1;rotation=90;" vertex="1" parent="_f1q4S9SzvILGj3-W1M5-141">
          <mxGeometry x="242.52999999999997" y="245.47000000000003" width="70" height="146.56" as="geometry" />
        </mxCell>
        <mxCell id="_f1q4S9SzvILGj3-W1M5-46" value="&lt;font style=&quot;font-size: 14px;&quot; face=&quot;Courier New&quot;&gt;Register&lt;br&gt;Sign Res&lt;/font&gt;" style="rounded=0;whiteSpace=wrap;html=1;" vertex="1" parent="_f1q4S9SzvILGj3-W1M5-141">
          <mxGeometry x="208" y="430" width="110" height="70" as="geometry" />
        </mxCell>
        <mxCell id="_f1q4S9SzvILGj3-W1M5-47" value="&lt;font face=&quot;Courier New&quot; style=&quot;font-size: 14px;&quot;&gt;Register&lt;br&gt;Exponent Res&lt;/font&gt;" style="rounded=0;whiteSpace=wrap;html=1;" vertex="1" parent="_f1q4S9SzvILGj3-W1M5-141">
          <mxGeometry x="328" y="430" width="110" height="70" as="geometry" />
        </mxCell>
        <mxCell id="_f1q4S9SzvILGj3-W1M5-48" value="&lt;font face=&quot;Courier New&quot; style=&quot;font-size: 14px;&quot;&gt;Register 64 bit&lt;br&gt;Mantissa Res&lt;/font&gt;" style="rounded=0;whiteSpace=wrap;html=1;" vertex="1" parent="_f1q4S9SzvILGj3-W1M5-141">
          <mxGeometry x="448" y="430" width="140" height="70" as="geometry" />
        </mxCell>
        <mxCell id="_f1q4S9SzvILGj3-W1M5-109" style="edgeStyle=orthogonalEdgeStyle;rounded=0;orthogonalLoop=1;jettySize=auto;html=1;entryX=0.75;entryY=1;entryDx=0;entryDy=0;" edge="1" parent="_f1q4S9SzvILGj3-W1M5-141" source="_f1q4S9SzvILGj3-W1M5-50" target="_f1q4S9SzvILGj3-W1M5-92">
          <mxGeometry relative="1" as="geometry" />
        </mxCell>
        <mxCell id="_f1q4S9SzvILGj3-W1M5-50" value="" style="shape=stencil(tVRBbsMgEHwN18pmm7o9RjQ99ZoHUGdTo9iLhUnS/r7Y2FKJDUoT9YK0M2JmgBEMRFfJFhnPKgavjPOcZ25189nPxTiSbNAj6/ethzpr9AHPamfHvYoqNMr2LGxYtma9VsZAlJoIS6s0dQHzi3diUpENnBR5o9apNmjReHhM9BVM3+P0MAGMv/271/NtXvporzDLL8xWy14gHBK7YBAfsjx8Gn2k3WLCVvaPNyMmutEnjB0/T9/0JFErikoUkTOlFGAVSDzdHeLxhhAXRfi7QBEqwP0SL1dJlLXuMNFYh88qMaCRHoHYa4OJgu1VXfuPIuEaaeFynImLqg7bZrEG1H92A/AD);whiteSpace=wrap;html=1;rotation=90;" vertex="1" parent="_f1q4S9SzvILGj3-W1M5-141">
          <mxGeometry x="408" y="245.47000000000003" width="70" height="146.56" as="geometry" />
        </mxCell>
        <mxCell id="_f1q4S9SzvILGj3-W1M5-112" style="edgeStyle=orthogonalEdgeStyle;rounded=0;orthogonalLoop=1;jettySize=auto;html=1;entryX=0.75;entryY=1;entryDx=0;entryDy=0;exitX=1;exitY=0.5;exitDx=0;exitDy=0;exitPerimeter=0;" edge="1" parent="_f1q4S9SzvILGj3-W1M5-141" source="_f1q4S9SzvILGj3-W1M5-51" target="_f1q4S9SzvILGj3-W1M5-94">
          <mxGeometry relative="1" as="geometry">
            <Array as="points">
              <mxPoint x="613" y="374" />
              <mxPoint x="498" y="374" />
            </Array>
          </mxGeometry>
        </mxCell>
        <mxCell id="_f1q4S9SzvILGj3-W1M5-51" value="" style="shape=stencil(tVRBbsMgEHwN18pmm7o9RjQ99ZoHUGdTo9iLhUnS/r7Y2FKJDUoT9YK0M2JmgBEMRFfJFhnPKgavjPOcZ25189nPxTiSbNAj6/ethzpr9AHPamfHvYoqNMr2LGxYtma9VsZAlJoIS6s0dQHzi3diUpENnBR5o9apNmjReHhM9BVM3+P0MAGMv/271/NtXvporzDLL8xWy14gHBK7YBAfsjx8Gn2k3WLCVvaPNyMmutEnjB0/T9/0JFErikoUkTOlFGAVSDzdHeLxhhAXRfi7QBEqwP0SL1dJlLXuMNFYh88qMaCRHoHYa4OJgu1VXfuPIuEaaeFynImLqg7bZrEG1H92A/AD);whiteSpace=wrap;html=1;rotation=90;" vertex="1" parent="_f1q4S9SzvILGj3-W1M5-141">
          <mxGeometry x="578" y="245.47000000000003" width="70" height="146.56" as="geometry" />
        </mxCell>
        <mxCell id="_f1q4S9SzvILGj3-W1M5-52" value="&lt;font face=&quot;Courier New&quot; style=&quot;font-size: 14px;&quot;&gt;Comparator&lt;/font&gt;" style="text;strokeColor=none;align=center;fillColor=none;html=1;verticalAlign=middle;whiteSpace=wrap;rounded=0;" vertex="1" parent="_f1q4S9SzvILGj3-W1M5-141">
          <mxGeometry x="247.52999999999997" y="320" width="60" height="30" as="geometry" />
        </mxCell>
        <mxCell id="_f1q4S9SzvILGj3-W1M5-53" value="&lt;font face=&quot;Courier New&quot; style=&quot;font-size: 14px;&quot;&gt;Exponent Adder&lt;/font&gt;" style="text;strokeColor=none;align=center;fillColor=none;html=1;verticalAlign=middle;whiteSpace=wrap;rounded=0;" vertex="1" parent="_f1q4S9SzvILGj3-W1M5-141">
          <mxGeometry x="413" y="320" width="60" height="30" as="geometry" />
        </mxCell>
        <mxCell id="_f1q4S9SzvILGj3-W1M5-54" value="&lt;font face=&quot;Courier New&quot;&gt;&lt;span style=&quot;font-size: 14px;&quot;&gt;Multiplier&lt;/span&gt;&lt;/font&gt;" style="text;strokeColor=none;align=center;fillColor=none;html=1;verticalAlign=middle;whiteSpace=wrap;rounded=0;" vertex="1" parent="_f1q4S9SzvILGj3-W1M5-141">
          <mxGeometry x="583" y="320" width="60" height="30" as="geometry" />
        </mxCell>
        <mxCell id="_f1q4S9SzvILGj3-W1M5-56" value="" style="shape=trapezoid;perimeter=trapezoidPerimeter;whiteSpace=wrap;html=1;fixedSize=1;rotation=-180;" vertex="1" parent="_f1q4S9SzvILGj3-W1M5-141">
          <mxGeometry x="188" y="245.47000000000003" width="80" height="20" as="geometry" />
        </mxCell>
        <mxCell id="_f1q4S9SzvILGj3-W1M5-57" value="" style="shape=trapezoid;perimeter=trapezoidPerimeter;whiteSpace=wrap;html=1;fixedSize=1;rotation=-180;" vertex="1" parent="_f1q4S9SzvILGj3-W1M5-141">
          <mxGeometry x="288" y="245.47000000000003" width="80" height="20" as="geometry" />
        </mxCell>
        <mxCell id="_f1q4S9SzvILGj3-W1M5-58" value="" style="endArrow=classic;html=1;rounded=0;exitX=0.5;exitY=1;exitDx=0;exitDy=0;entryX=0.75;entryY=1;entryDx=0;entryDy=0;" edge="1" parent="_f1q4S9SzvILGj3-W1M5-141" source="_f1q4S9SzvILGj3-W1M5-48" target="_f1q4S9SzvILGj3-W1M5-56">
          <mxGeometry width="50" height="50" relative="1" as="geometry">
            <mxPoint x="258" y="270" as="sourcePoint" />
            <mxPoint x="308" y="220" as="targetPoint" />
            <Array as="points">
              <mxPoint x="518" y="550" />
              <mxPoint x="168" y="550" />
              <mxPoint x="168" y="220" />
              <mxPoint x="208" y="220" />
            </Array>
          </mxGeometry>
        </mxCell>
        <mxCell id="_f1q4S9SzvILGj3-W1M5-59" value="" style="endArrow=classic;html=1;rounded=0;exitX=0.5;exitY=1;exitDx=0;exitDy=0;entryX=0.25;entryY=1;entryDx=0;entryDy=0;" edge="1" parent="_f1q4S9SzvILGj3-W1M5-141" source="_f1q4S9SzvILGj3-W1M5-47" target="_f1q4S9SzvILGj3-W1M5-56">
          <mxGeometry width="50" height="50" relative="1" as="geometry">
            <mxPoint x="338" y="410" as="sourcePoint" />
            <mxPoint x="388" y="360" as="targetPoint" />
            <Array as="points">
              <mxPoint x="383" y="540" />
              <mxPoint x="178" y="540" />
              <mxPoint x="178" y="230" />
              <mxPoint x="248" y="230" />
            </Array>
          </mxGeometry>
        </mxCell>
        <mxCell id="_f1q4S9SzvILGj3-W1M5-60" value="" style="endArrow=classic;html=1;rounded=0;exitX=0.5;exitY=0;exitDx=0;exitDy=0;entryX=-0.007;entryY=0.837;entryDx=0;entryDy=0;entryPerimeter=0;" edge="1" parent="_f1q4S9SzvILGj3-W1M5-141" source="_f1q4S9SzvILGj3-W1M5-56" target="_f1q4S9SzvILGj3-W1M5-45">
          <mxGeometry width="50" height="50" relative="1" as="geometry">
            <mxPoint x="278" y="300" as="sourcePoint" />
            <mxPoint x="248" y="270" as="targetPoint" />
          </mxGeometry>
        </mxCell>
        <mxCell id="_f1q4S9SzvILGj3-W1M5-61" value="" style="endArrow=classic;html=1;rounded=0;exitX=0.5;exitY=0;exitDx=0;exitDy=0;entryX=-0.003;entryY=0.155;entryDx=0;entryDy=0;entryPerimeter=0;" edge="1" parent="_f1q4S9SzvILGj3-W1M5-141" source="_f1q4S9SzvILGj3-W1M5-57" target="_f1q4S9SzvILGj3-W1M5-45">
          <mxGeometry width="50" height="50" relative="1" as="geometry">
            <mxPoint x="308" y="300" as="sourcePoint" />
            <mxPoint x="328" y="280" as="targetPoint" />
          </mxGeometry>
        </mxCell>
        <mxCell id="_f1q4S9SzvILGj3-W1M5-62" value="" style="endArrow=classic;html=1;rounded=0;entryX=0.75;entryY=1;entryDx=0;entryDy=0;" edge="1" parent="_f1q4S9SzvILGj3-W1M5-141" target="_f1q4S9SzvILGj3-W1M5-57">
          <mxGeometry width="50" height="50" relative="1" as="geometry">
            <mxPoint x="308" y="230" as="sourcePoint" />
            <mxPoint x="318" y="230" as="targetPoint" />
          </mxGeometry>
        </mxCell>
        <mxCell id="_f1q4S9SzvILGj3-W1M5-63" value="" style="endArrow=classic;html=1;rounded=0;entryX=0.5;entryY=1;entryDx=0;entryDy=0;" edge="1" parent="_f1q4S9SzvILGj3-W1M5-141" target="_f1q4S9SzvILGj3-W1M5-57">
          <mxGeometry width="50" height="50" relative="1" as="geometry">
            <mxPoint x="328" y="230" as="sourcePoint" />
            <mxPoint x="378" y="180" as="targetPoint" />
          </mxGeometry>
        </mxCell>
        <mxCell id="_f1q4S9SzvILGj3-W1M5-64" value="" style="endArrow=classic;html=1;rounded=0;entryX=0.25;entryY=1;entryDx=0;entryDy=0;" edge="1" parent="_f1q4S9SzvILGj3-W1M5-141" target="_f1q4S9SzvILGj3-W1M5-57">
          <mxGeometry width="50" height="50" relative="1" as="geometry">
            <mxPoint x="348" y="230" as="sourcePoint" />
            <mxPoint x="398" y="180" as="targetPoint" />
          </mxGeometry>
        </mxCell>
        <mxCell id="_f1q4S9SzvILGj3-W1M5-65" value="&lt;font face=&quot;Courier New&quot; style=&quot;font-size: 6px;&quot;&gt;x0&lt;/font&gt;" style="text;strokeColor=none;align=center;fillColor=none;html=1;verticalAlign=middle;whiteSpace=wrap;rounded=0;" vertex="1" parent="_f1q4S9SzvILGj3-W1M5-141">
          <mxGeometry x="298" y="220" width="20" height="10" as="geometry" />
        </mxCell>
        <mxCell id="_f1q4S9SzvILGj3-W1M5-67" value="&lt;font face=&quot;Courier New&quot; style=&quot;font-size: 6px;&quot;&gt;x200&lt;/font&gt;" style="text;strokeColor=none;align=center;fillColor=none;html=1;verticalAlign=middle;whiteSpace=wrap;rounded=0;" vertex="1" parent="_f1q4S9SzvILGj3-W1M5-141">
          <mxGeometry x="318" y="220" width="20" height="10" as="geometry" />
        </mxCell>
        <mxCell id="_f1q4S9SzvILGj3-W1M5-68" value="&lt;font face=&quot;Courier New&quot; style=&quot;font-size: 6px;&quot;&gt;x2FF&lt;/font&gt;" style="text;strokeColor=none;align=center;fillColor=none;html=1;verticalAlign=middle;whiteSpace=wrap;rounded=0;" vertex="1" parent="_f1q4S9SzvILGj3-W1M5-141">
          <mxGeometry x="338" y="220" width="20" height="10" as="geometry" />
        </mxCell>
        <mxCell id="_f1q4S9SzvILGj3-W1M5-69" value="" style="endArrow=classic;html=1;rounded=0;exitX=0.5;exitY=1;exitDx=0;exitDy=0;entryX=0;entryY=0.808;entryDx=0;entryDy=0;entryPerimeter=0;" edge="1" parent="_f1q4S9SzvILGj3-W1M5-141" source="_f1q4S9SzvILGj3-W1M5-5" target="_f1q4S9SzvILGj3-W1M5-50">
          <mxGeometry width="50" height="50" relative="1" as="geometry">
            <mxPoint x="428" y="270" as="sourcePoint" />
            <mxPoint x="398" y="270" as="targetPoint" />
            <Array as="points">
              <mxPoint x="303" y="220" />
              <mxPoint x="398" y="220" />
            </Array>
          </mxGeometry>
        </mxCell>
        <mxCell id="_f1q4S9SzvILGj3-W1M5-70" value="" style="endArrow=classic;html=1;rounded=0;exitX=0.5;exitY=1;exitDx=0;exitDy=0;entryX=-0.002;entryY=0.193;entryDx=0;entryDy=0;entryPerimeter=0;" edge="1" parent="_f1q4S9SzvILGj3-W1M5-141" source="_f1q4S9SzvILGj3-W1M5-8" target="_f1q4S9SzvILGj3-W1M5-50">
          <mxGeometry width="50" height="50" relative="1" as="geometry">
            <mxPoint x="478" y="270" as="sourcePoint" />
            <mxPoint x="488" y="270" as="targetPoint" />
            <Array as="points">
              <mxPoint x="683" y="220" />
              <mxPoint x="488" y="220" />
            </Array>
          </mxGeometry>
        </mxCell>
        <mxCell id="_f1q4S9SzvILGj3-W1M5-71" value="" style="endArrow=classic;html=1;rounded=0;exitX=0.5;exitY=1;exitDx=0;exitDy=0;entryX=0;entryY=0.807;entryDx=0;entryDy=0;entryPerimeter=0;" edge="1" parent="_f1q4S9SzvILGj3-W1M5-141" source="_f1q4S9SzvILGj3-W1M5-6" target="_f1q4S9SzvILGj3-W1M5-51">
          <mxGeometry width="50" height="50" relative="1" as="geometry">
            <mxPoint x="428" y="250" as="sourcePoint" />
            <mxPoint x="568" y="270" as="targetPoint" />
            <Array as="points">
              <mxPoint x="423" y="230" />
              <mxPoint x="568" y="230" />
            </Array>
          </mxGeometry>
        </mxCell>
        <mxCell id="_f1q4S9SzvILGj3-W1M5-72" value="" style="endArrow=classic;html=1;rounded=0;exitX=0.5;exitY=1;exitDx=0;exitDy=0;entryX=-0.005;entryY=0.193;entryDx=0;entryDy=0;entryPerimeter=0;" edge="1" parent="_f1q4S9SzvILGj3-W1M5-141" source="_f1q4S9SzvILGj3-W1M5-9" target="_f1q4S9SzvILGj3-W1M5-51">
          <mxGeometry width="50" height="50" relative="1" as="geometry">
            <mxPoint x="808" y="210" as="sourcePoint" />
            <mxPoint x="658" y="280" as="targetPoint" />
            <Array as="points">
              <mxPoint x="803" y="230" />
              <mxPoint x="658" y="230" />
            </Array>
          </mxGeometry>
        </mxCell>
        <mxCell id="_f1q4S9SzvILGj3-W1M5-73" value="" style="endArrow=classic;html=1;rounded=0;entryX=0.5;entryY=0;entryDx=0;entryDy=0;" edge="1" parent="_f1q4S9SzvILGj3-W1M5-141" target="_f1q4S9SzvILGj3-W1M5-2">
          <mxGeometry width="50" height="50" relative="1" as="geometry">
            <mxPoint x="298" y="70" as="sourcePoint" />
            <mxPoint x="218" y="50" as="targetPoint" />
            <Array as="points">
              <mxPoint x="183" y="70" />
            </Array>
          </mxGeometry>
        </mxCell>
        <mxCell id="_f1q4S9SzvILGj3-W1M5-74" value="" style="endArrow=classic;html=1;rounded=0;entryX=0.5;entryY=0;entryDx=0;entryDy=0;" edge="1" parent="_f1q4S9SzvILGj3-W1M5-141" source="_f1q4S9SzvILGj3-W1M5-133" target="_f1q4S9SzvILGj3-W1M5-5">
          <mxGeometry width="50" height="50" relative="1" as="geometry">
            <mxPoint x="303" y="30" as="sourcePoint" />
            <mxPoint x="298" y="30" as="targetPoint" />
          </mxGeometry>
        </mxCell>
        <mxCell id="_f1q4S9SzvILGj3-W1M5-75" value="" style="endArrow=classic;html=1;rounded=0;entryX=0.5;entryY=0;entryDx=0;entryDy=0;" edge="1" parent="_f1q4S9SzvILGj3-W1M5-141" target="_f1q4S9SzvILGj3-W1M5-6">
          <mxGeometry width="50" height="50" relative="1" as="geometry">
            <mxPoint x="288" y="70" as="sourcePoint" />
            <mxPoint x="478" y="20" as="targetPoint" />
            <Array as="points">
              <mxPoint x="423" y="70" />
            </Array>
          </mxGeometry>
        </mxCell>
        <mxCell id="_f1q4S9SzvILGj3-W1M5-77" value="&lt;font face=&quot;Courier New&quot; style=&quot;font-size: 14px;&quot;&gt;Number&lt;br&gt;A&lt;/font&gt;" style="text;strokeColor=none;align=center;fillColor=none;html=1;verticalAlign=middle;whiteSpace=wrap;rounded=0;" vertex="1" parent="_f1q4S9SzvILGj3-W1M5-141">
          <mxGeometry x="273" width="60" height="30" as="geometry" />
        </mxCell>
        <mxCell id="_f1q4S9SzvILGj3-W1M5-78" value="" style="endArrow=classic;html=1;rounded=0;entryX=0.5;entryY=0;entryDx=0;entryDy=0;" edge="1" parent="_f1q4S9SzvILGj3-W1M5-141">
          <mxGeometry width="50" height="50" relative="1" as="geometry">
            <mxPoint x="678" y="70" as="sourcePoint" />
            <mxPoint x="563" y="120" as="targetPoint" />
            <Array as="points">
              <mxPoint x="563" y="70" />
            </Array>
          </mxGeometry>
        </mxCell>
        <mxCell id="_f1q4S9SzvILGj3-W1M5-79" value="" style="endArrow=classic;html=1;rounded=0;entryX=0.5;entryY=0;entryDx=0;entryDy=0;" edge="1" parent="_f1q4S9SzvILGj3-W1M5-141">
          <mxGeometry width="50" height="50" relative="1" as="geometry">
            <mxPoint x="683" y="30" as="sourcePoint" />
            <mxPoint x="683" y="120" as="targetPoint" />
          </mxGeometry>
        </mxCell>
        <mxCell id="_f1q4S9SzvILGj3-W1M5-80" value="" style="endArrow=classic;html=1;rounded=0;entryX=0.5;entryY=0;entryDx=0;entryDy=0;" edge="1" parent="_f1q4S9SzvILGj3-W1M5-141" source="_f1q4S9SzvILGj3-W1M5-135">
          <mxGeometry width="50" height="50" relative="1" as="geometry">
            <mxPoint x="668" y="70" as="sourcePoint" />
            <mxPoint x="803" y="120" as="targetPoint" />
            <Array as="points">
              <mxPoint x="803" y="70" />
            </Array>
          </mxGeometry>
        </mxCell>
        <mxCell id="_f1q4S9SzvILGj3-W1M5-81" value="&lt;font face=&quot;Courier New&quot; style=&quot;font-size: 14px;&quot;&gt;Number&lt;br&gt;B&lt;/font&gt;" style="text;strokeColor=none;align=center;fillColor=none;html=1;verticalAlign=middle;whiteSpace=wrap;rounded=0;" vertex="1" parent="_f1q4S9SzvILGj3-W1M5-141">
          <mxGeometry x="653" width="60" height="30" as="geometry" />
        </mxCell>
        <mxCell id="_f1q4S9SzvILGj3-W1M5-82" value="" style="endArrow=classic;html=1;rounded=0;entryX=0;entryY=0;entryDx=0;entryDy=0;exitX=0.5;exitY=1;exitDx=0;exitDy=0;" edge="1" parent="_f1q4S9SzvILGj3-W1M5-141" source="_f1q4S9SzvILGj3-W1M5-87" target="_f1q4S9SzvILGj3-W1M5-1">
          <mxGeometry width="50" height="50" relative="1" as="geometry">
            <mxPoint x="26" y="38" as="sourcePoint" />
            <mxPoint x="78" y="60" as="targetPoint" />
          </mxGeometry>
        </mxCell>
        <mxCell id="_f1q4S9SzvILGj3-W1M5-83" value="" style="endArrow=classic;html=1;rounded=0;entryX=1;entryY=0;entryDx=0;entryDy=0;exitX=0.5;exitY=1;exitDx=0;exitDy=0;" edge="1" parent="_f1q4S9SzvILGj3-W1M5-141" source="_f1q4S9SzvILGj3-W1M5-89" target="_f1q4S9SzvILGj3-W1M5-1">
          <mxGeometry width="50" height="50" relative="1" as="geometry">
            <mxPoint x="110" y="38" as="sourcePoint" />
            <mxPoint x="118" y="160" as="targetPoint" />
          </mxGeometry>
        </mxCell>
        <mxCell id="_f1q4S9SzvILGj3-W1M5-84" value="" style="endArrow=classic;html=1;rounded=0;entryX=0.5;entryY=0;entryDx=0;entryDy=0;exitX=0.5;exitY=1;exitDx=0;exitDy=0;" edge="1" parent="_f1q4S9SzvILGj3-W1M5-141" source="_f1q4S9SzvILGj3-W1M5-88" target="_f1q4S9SzvILGj3-W1M5-1">
          <mxGeometry width="50" height="50" relative="1" as="geometry">
            <mxPoint x="68" y="38" as="sourcePoint" />
            <mxPoint x="98" y="130" as="targetPoint" />
          </mxGeometry>
        </mxCell>
        <mxCell id="_f1q4S9SzvILGj3-W1M5-87" value="&lt;font style=&quot;font-size: 12px;&quot; face=&quot;Courier New&quot;&gt;CLK&lt;/font&gt;" style="text;strokeColor=none;align=center;fillColor=none;html=1;verticalAlign=middle;whiteSpace=wrap;rounded=0;" vertex="1" parent="_f1q4S9SzvILGj3-W1M5-141">
          <mxGeometry x="4" y="4" width="44" height="22" as="geometry" />
        </mxCell>
        <mxCell id="_f1q4S9SzvILGj3-W1M5-88" value="&lt;font style=&quot;font-size: 12px;&quot; face=&quot;Courier New&quot;&gt;Start&lt;/font&gt;" style="text;strokeColor=none;align=center;fillColor=none;html=1;verticalAlign=middle;whiteSpace=wrap;rounded=0;" vertex="1" parent="_f1q4S9SzvILGj3-W1M5-141">
          <mxGeometry x="46" y="4" width="44" height="22" as="geometry" />
        </mxCell>
        <mxCell id="_f1q4S9SzvILGj3-W1M5-89" value="&lt;font style=&quot;font-size: 12px;&quot; face=&quot;Courier New&quot;&gt;Reset&lt;/font&gt;" style="text;strokeColor=none;align=center;fillColor=none;html=1;verticalAlign=middle;whiteSpace=wrap;rounded=0;" vertex="1" parent="_f1q4S9SzvILGj3-W1M5-141">
          <mxGeometry x="88" y="4" width="44" height="22" as="geometry" />
        </mxCell>
        <mxCell id="_f1q4S9SzvILGj3-W1M5-90" value="" style="shape=trapezoid;perimeter=trapezoidPerimeter;whiteSpace=wrap;html=1;fixedSize=1;rotation=-180;" vertex="1" parent="_f1q4S9SzvILGj3-W1M5-141">
          <mxGeometry x="223" y="392.03" width="80" height="20" as="geometry" />
        </mxCell>
        <mxCell id="_f1q4S9SzvILGj3-W1M5-91" value="" style="endArrow=classic;html=1;rounded=0;exitX=0.5;exitY=0;exitDx=0;exitDy=0;entryX=-0.007;entryY=0.837;entryDx=0;entryDy=0;entryPerimeter=0;" edge="1" parent="_f1q4S9SzvILGj3-W1M5-141" source="_f1q4S9SzvILGj3-W1M5-90">
          <mxGeometry width="50" height="50" relative="1" as="geometry">
            <mxPoint x="313" y="446.53" as="sourcePoint" />
            <mxPoint x="263" y="429.53" as="targetPoint" />
          </mxGeometry>
        </mxCell>
        <mxCell id="_f1q4S9SzvILGj3-W1M5-92" value="" style="shape=trapezoid;perimeter=trapezoidPerimeter;whiteSpace=wrap;html=1;fixedSize=1;rotation=-180;" vertex="1" parent="_f1q4S9SzvILGj3-W1M5-141">
          <mxGeometry x="343" y="392.03" width="80" height="20" as="geometry" />
        </mxCell>
        <mxCell id="_f1q4S9SzvILGj3-W1M5-93" value="" style="endArrow=classic;html=1;rounded=0;exitX=0.5;exitY=0;exitDx=0;exitDy=0;entryX=-0.007;entryY=0.837;entryDx=0;entryDy=0;entryPerimeter=0;" edge="1" parent="_f1q4S9SzvILGj3-W1M5-141" source="_f1q4S9SzvILGj3-W1M5-92">
          <mxGeometry width="50" height="50" relative="1" as="geometry">
            <mxPoint x="433" y="446.55999999999995" as="sourcePoint" />
            <mxPoint x="383" y="429.55999999999995" as="targetPoint" />
          </mxGeometry>
        </mxCell>
        <mxCell id="_f1q4S9SzvILGj3-W1M5-94" value="" style="shape=trapezoid;perimeter=trapezoidPerimeter;whiteSpace=wrap;html=1;fixedSize=1;rotation=-180;" vertex="1" parent="_f1q4S9SzvILGj3-W1M5-141">
          <mxGeometry x="478" y="392.03" width="80" height="20" as="geometry" />
        </mxCell>
        <mxCell id="_f1q4S9SzvILGj3-W1M5-95" value="" style="endArrow=classic;html=1;rounded=0;exitX=0.5;exitY=0;exitDx=0;exitDy=0;entryX=0.5;entryY=0;entryDx=0;entryDy=0;" edge="1" parent="_f1q4S9SzvILGj3-W1M5-141" source="_f1q4S9SzvILGj3-W1M5-94" target="_f1q4S9SzvILGj3-W1M5-48">
          <mxGeometry width="50" height="50" relative="1" as="geometry">
            <mxPoint x="566" y="446.53" as="sourcePoint" />
            <mxPoint x="516" y="429.53" as="targetPoint" />
          </mxGeometry>
        </mxCell>
        <mxCell id="_f1q4S9SzvILGj3-W1M5-96" value="" style="verticalLabelPosition=bottom;shadow=0;dashed=0;align=center;html=1;verticalAlign=top;shape=mxgraph.electrical.logic_gates.logic_gate;operation=xor;rotation=90;" vertex="1" parent="_f1q4S9SzvILGj3-W1M5-141">
          <mxGeometry x="230" y="371" width="26.67" height="16" as="geometry" />
        </mxCell>
        <mxCell id="_f1q4S9SzvILGj3-W1M5-101" value="&lt;font style=&quot;font-size: 6px;&quot; face=&quot;Courier New&quot;&gt;Sign 1&lt;/font&gt;" style="text;strokeColor=none;align=center;fillColor=none;html=1;verticalAlign=middle;whiteSpace=wrap;rounded=0;" vertex="1" parent="_f1q4S9SzvILGj3-W1M5-141">
          <mxGeometry x="218.52999999999997" y="358" width="24" height="8" as="geometry" />
        </mxCell>
        <mxCell id="_f1q4S9SzvILGj3-W1M5-102" value="&lt;font style=&quot;font-size: 6px;&quot; face=&quot;Courier New&quot;&gt;Sign 2&lt;/font&gt;" style="text;strokeColor=none;align=center;fillColor=none;html=1;verticalAlign=middle;whiteSpace=wrap;rounded=0;" vertex="1" parent="_f1q4S9SzvILGj3-W1M5-141">
          <mxGeometry x="244" y="358" width="24" height="8" as="geometry" />
        </mxCell>
        <mxCell id="_f1q4S9SzvILGj3-W1M5-106" value="" style="endArrow=classic;html=1;rounded=0;entryX=0.75;entryY=1;entryDx=0;entryDy=0;" edge="1" parent="_f1q4S9SzvILGj3-W1M5-141">
          <mxGeometry width="50" height="50" relative="1" as="geometry">
            <mxPoint x="283" y="377.03" as="sourcePoint" />
            <mxPoint x="283" y="392.03" as="targetPoint" />
          </mxGeometry>
        </mxCell>
        <mxCell id="_f1q4S9SzvILGj3-W1M5-107" value="&lt;font face=&quot;Courier New&quot; style=&quot;font-size: 6px;&quot;&gt;x0&lt;/font&gt;" style="text;strokeColor=none;align=center;fillColor=none;html=1;verticalAlign=middle;whiteSpace=wrap;rounded=0;" vertex="1" parent="_f1q4S9SzvILGj3-W1M5-141">
          <mxGeometry x="273" y="368.03" width="20" height="10" as="geometry" />
        </mxCell>
        <mxCell id="_f1q4S9SzvILGj3-W1M5-110" value="" style="endArrow=classic;html=1;rounded=0;entryX=0.75;entryY=1;entryDx=0;entryDy=0;exitX=0.5;exitY=1;exitDx=0;exitDy=0;" edge="1" parent="_f1q4S9SzvILGj3-W1M5-141" source="_f1q4S9SzvILGj3-W1M5-111">
          <mxGeometry width="50" height="50" relative="1" as="geometry">
            <mxPoint x="403" y="377" as="sourcePoint" />
            <mxPoint x="403" y="392" as="targetPoint" />
          </mxGeometry>
        </mxCell>
        <mxCell id="_f1q4S9SzvILGj3-W1M5-111" value="&lt;font face=&quot;Courier New&quot; style=&quot;font-size: 6px;&quot;&gt;x0&lt;/font&gt;" style="text;strokeColor=none;align=center;fillColor=none;html=1;verticalAlign=middle;whiteSpace=wrap;rounded=0;" vertex="1" parent="_f1q4S9SzvILGj3-W1M5-141">
          <mxGeometry x="393" y="358" width="20" height="10" as="geometry" />
        </mxCell>
        <mxCell id="_f1q4S9SzvILGj3-W1M5-113" value="" style="endArrow=classic;html=1;rounded=0;entryX=0.75;entryY=1;entryDx=0;entryDy=0;exitX=0.5;exitY=1;exitDx=0;exitDy=0;" edge="1" parent="_f1q4S9SzvILGj3-W1M5-141" source="_f1q4S9SzvILGj3-W1M5-114">
          <mxGeometry width="50" height="50" relative="1" as="geometry">
            <mxPoint x="518" y="377.03" as="sourcePoint" />
            <mxPoint x="518" y="392.03" as="targetPoint" />
          </mxGeometry>
        </mxCell>
        <mxCell id="_f1q4S9SzvILGj3-W1M5-114" value="&lt;font face=&quot;Courier New&quot; style=&quot;font-size: 6px;&quot;&gt;x0&lt;/font&gt;" style="text;strokeColor=none;align=center;fillColor=none;html=1;verticalAlign=middle;whiteSpace=wrap;rounded=0;" vertex="1" parent="_f1q4S9SzvILGj3-W1M5-141">
          <mxGeometry x="508" y="358.03" width="20" height="10" as="geometry" />
        </mxCell>
        <mxCell id="_f1q4S9SzvILGj3-W1M5-115" value="" style="endArrow=classic;html=1;rounded=0;entryX=0.75;entryY=1;entryDx=0;entryDy=0;exitX=0.5;exitY=1;exitDx=0;exitDy=0;" edge="1" parent="_f1q4S9SzvILGj3-W1M5-141" source="_f1q4S9SzvILGj3-W1M5-116">
          <mxGeometry width="50" height="50" relative="1" as="geometry">
            <mxPoint x="542" y="377" as="sourcePoint" />
            <mxPoint x="542" y="392" as="targetPoint" />
          </mxGeometry>
        </mxCell>
        <mxCell id="_f1q4S9SzvILGj3-W1M5-116" value="&lt;font face=&quot;Courier New&quot;&gt;&lt;span style=&quot;font-size: 6px;&quot;&gt;x1&lt;/span&gt;&lt;/font&gt;" style="text;strokeColor=none;align=center;fillColor=none;html=1;verticalAlign=middle;whiteSpace=wrap;rounded=0;" vertex="1" parent="_f1q4S9SzvILGj3-W1M5-141">
          <mxGeometry x="532" y="358" width="20" height="10" as="geometry" />
        </mxCell>
        <mxCell id="_f1q4S9SzvILGj3-W1M5-117" value="" style="endArrow=classic;html=1;rounded=0;exitX=0.5;exitY=1;exitDx=0;exitDy=0;" edge="1" parent="_f1q4S9SzvILGj3-W1M5-141" source="_f1q4S9SzvILGj3-W1M5-1">
          <mxGeometry width="50" height="50" relative="1" as="geometry">
            <mxPoint x="60" y="444" as="sourcePoint" />
            <mxPoint x="68" y="582" as="targetPoint" />
          </mxGeometry>
        </mxCell>
        <mxCell id="_f1q4S9SzvILGj3-W1M5-118" value="&lt;font face=&quot;Courier New&quot;&gt;&lt;span style=&quot;font-size: 14px;&quot;&gt;Working&lt;/span&gt;&lt;/font&gt;" style="text;strokeColor=none;align=center;fillColor=none;html=1;verticalAlign=middle;whiteSpace=wrap;rounded=0;" vertex="1" parent="_f1q4S9SzvILGj3-W1M5-141">
          <mxGeometry x="38" y="582" width="60" height="30" as="geometry" />
        </mxCell>
        <mxCell id="_f1q4S9SzvILGj3-W1M5-119" value="" style="endArrow=classic;html=1;rounded=0;exitX=0.734;exitY=0.941;exitDx=0;exitDy=0;exitPerimeter=0;" edge="1" parent="_f1q4S9SzvILGj3-W1M5-141" source="_f1q4S9SzvILGj3-W1M5-1">
          <mxGeometry width="50" height="50" relative="1" as="geometry">
            <mxPoint x="112" y="354" as="sourcePoint" />
            <mxPoint x="128" y="406" as="targetPoint" />
            <Array as="points">
              <mxPoint x="96" y="406" />
            </Array>
          </mxGeometry>
        </mxCell>
        <mxCell id="_f1q4S9SzvILGj3-W1M5-121" value="&lt;font style=&quot;font-size: 10px;&quot; face=&quot;Courier New&quot;&gt;Select&lt;/font&gt;" style="text;strokeColor=none;align=center;fillColor=none;html=1;verticalAlign=middle;whiteSpace=wrap;rounded=0;" vertex="1" parent="_f1q4S9SzvILGj3-W1M5-141">
          <mxGeometry x="124" y="396" width="44" height="16.03" as="geometry" />
        </mxCell>
        <mxCell id="_f1q4S9SzvILGj3-W1M5-122" value="" style="endArrow=classic;html=1;rounded=0;exitX=0.5;exitY=1;exitDx=0;exitDy=0;" edge="1" parent="_f1q4S9SzvILGj3-W1M5-141" source="_f1q4S9SzvILGj3-W1M5-128">
          <mxGeometry width="50" height="50" relative="1" as="geometry">
            <mxPoint x="284" y="660" as="sourcePoint" />
            <mxPoint x="383" y="582" as="targetPoint" />
          </mxGeometry>
        </mxCell>
        <mxCell id="_f1q4S9SzvILGj3-W1M5-126" value="" style="endArrow=none;html=1;rounded=0;exitX=0.5;exitY=1;exitDx=0;exitDy=0;" edge="1" parent="_f1q4S9SzvILGj3-W1M5-141" source="_f1q4S9SzvILGj3-W1M5-46">
          <mxGeometry width="50" height="50" relative="1" as="geometry">
            <mxPoint x="272" y="612" as="sourcePoint" />
            <mxPoint x="384" y="566" as="targetPoint" />
            <Array as="points">
              <mxPoint x="263" y="566" />
            </Array>
          </mxGeometry>
        </mxCell>
        <mxCell id="_f1q4S9SzvILGj3-W1M5-127" value="" style="endArrow=none;html=1;rounded=0;entryX=0.5;entryY=1;entryDx=0;entryDy=0;" edge="1" parent="_f1q4S9SzvILGj3-W1M5-141" source="_f1q4S9SzvILGj3-W1M5-130" target="_f1q4S9SzvILGj3-W1M5-48">
          <mxGeometry width="50" height="50" relative="1" as="geometry">
            <mxPoint x="384" y="566" as="sourcePoint" />
            <mxPoint x="494" y="562" as="targetPoint" />
            <Array as="points">
              <mxPoint x="518" y="566" />
            </Array>
          </mxGeometry>
        </mxCell>
        <mxCell id="_f1q4S9SzvILGj3-W1M5-129" value="" style="endArrow=classic;html=1;rounded=0;exitX=0.5;exitY=1;exitDx=0;exitDy=0;" edge="1" parent="_f1q4S9SzvILGj3-W1M5-141" source="_f1q4S9SzvILGj3-W1M5-47">
          <mxGeometry width="50" height="50" relative="1" as="geometry">
            <mxPoint x="383" y="500" as="sourcePoint" />
            <mxPoint x="383" y="582" as="targetPoint" />
          </mxGeometry>
        </mxCell>
        <mxCell id="_f1q4S9SzvILGj3-W1M5-128" value="" style="ellipse;whiteSpace=wrap;html=1;aspect=fixed;fillColor=#000000;" vertex="1" parent="_f1q4S9SzvILGj3-W1M5-141">
          <mxGeometry x="381" y="538" width="4" height="4" as="geometry" />
        </mxCell>
        <mxCell id="_f1q4S9SzvILGj3-W1M5-132" value="" style="endArrow=none;html=1;rounded=0;" edge="1" parent="_f1q4S9SzvILGj3-W1M5-141">
          <mxGeometry width="50" height="50" relative="1" as="geometry">
            <mxPoint x="384" y="566" as="sourcePoint" />
            <mxPoint x="518" y="566" as="targetPoint" />
            <Array as="points" />
          </mxGeometry>
        </mxCell>
        <mxCell id="_f1q4S9SzvILGj3-W1M5-130" value="" style="ellipse;whiteSpace=wrap;html=1;aspect=fixed;fillColor=#000000;" vertex="1" parent="_f1q4S9SzvILGj3-W1M5-141">
          <mxGeometry x="516" y="548" width="4" height="4" as="geometry" />
        </mxCell>
        <mxCell id="_f1q4S9SzvILGj3-W1M5-134" value="" style="endArrow=classic;html=1;rounded=0;entryX=0.5;entryY=0;entryDx=0;entryDy=0;" edge="1" parent="_f1q4S9SzvILGj3-W1M5-141" target="_f1q4S9SzvILGj3-W1M5-5">
          <mxGeometry width="50" height="50" relative="1" as="geometry">
            <mxPoint x="303" y="30" as="sourcePoint" />
            <mxPoint x="303" y="120" as="targetPoint" />
          </mxGeometry>
        </mxCell>
        <mxCell id="_f1q4S9SzvILGj3-W1M5-133" value="" style="ellipse;whiteSpace=wrap;html=1;aspect=fixed;fillColor=#000000;" vertex="1" parent="_f1q4S9SzvILGj3-W1M5-141">
          <mxGeometry x="301" y="68" width="4" height="4" as="geometry" />
        </mxCell>
        <mxCell id="_f1q4S9SzvILGj3-W1M5-136" value="" style="endArrow=none;html=1;rounded=0;endFill=0;" edge="1" parent="_f1q4S9SzvILGj3-W1M5-141">
          <mxGeometry width="50" height="50" relative="1" as="geometry">
            <mxPoint x="668" y="70" as="sourcePoint" />
            <mxPoint x="692" y="70" as="targetPoint" />
            <Array as="points" />
          </mxGeometry>
        </mxCell>
        <mxCell id="_f1q4S9SzvILGj3-W1M5-135" value="" style="ellipse;whiteSpace=wrap;html=1;aspect=fixed;fillColor=#000000;" vertex="1" parent="_f1q4S9SzvILGj3-W1M5-141">
          <mxGeometry x="681" y="68" width="4" height="4" as="geometry" />
        </mxCell>
        <mxCell id="_f1q4S9SzvILGj3-W1M5-137" value="&lt;font face=&quot;Courier New&quot;&gt;&lt;span style=&quot;font-size: 14px;&quot;&gt;Result&lt;/span&gt;&lt;/font&gt;" style="text;strokeColor=none;align=center;fillColor=none;html=1;verticalAlign=middle;whiteSpace=wrap;rounded=0;" vertex="1" parent="_f1q4S9SzvILGj3-W1M5-141">
          <mxGeometry x="353" y="582" width="60" height="30" as="geometry" />
        </mxCell>
      </root>
    </mxGraphModel>
  </diagram>
</mxfile>
